HIERARCHY
ROOT Hips
{
	OFFSET -3.958830 18.904000 13.208200
	CHANNELS 6 Xposition Yposition Zposition Zrotation Yrotation Xrotation 
	JOINT LHipJoint
	{
		OFFSET 0.000000 0.000000 0.000000
		CHANNELS 3 Zrotation Yrotation Xrotation
		JOINT LeftUpLeg
		{
			OFFSET 1.800000 -1.400000 0.085000
			CHANNELS 3 Zrotation Yrotation Xrotation
			JOINT LeftLeg
			{
				OFFSET 2.215000 -6.000000 0.000000
				CHANNELS 3 Zrotation Yrotation Xrotation
				JOINT LeftFoot
				{
					OFFSET 2.500000 -6.900000 0.000000
					CHANNELS 3 Zrotation Yrotation Xrotation
					JOINT LeftToeBase
					{
						OFFSET 0.200000 -0.500000 1.950000
						CHANNELS 3 Zrotation Yrotation Xrotation
						End Site
						{
							OFFSET 0.000000 0.000000 0.000000
						}
					}
				}
			}
		}
	}
	JOINT RHipJoint
	{
		OFFSET 0.000000 0.000000 0.000000
		CHANNELS 3 Zrotation Yrotation Xrotation
		JOINT RightUpLeg
		{
			OFFSET -1.800000 -1.400000 0.085000
			CHANNELS 3 Zrotation Yrotation Xrotation
			JOINT RightLeg
			{
				OFFSET -2.215000 -6.000000 0.000000
				CHANNELS 3 Zrotation Yrotation Xrotation
				JOINT RightFoot
				{
					OFFSET -2.500000 -6.900000 0.000000
					CHANNELS 3 Zrotation Yrotation Xrotation
					JOINT RightToeBase
					{
						OFFSET -0.200000 -0.500000 1.950000
						CHANNELS 3 Zrotation Yrotation Xrotation
						End Site
						{
							OFFSET 0.000000 0.000000 0.000000
						}
					}
				}
			}
		}
	}
	JOINT LowerBack
	{
		OFFSET 0.000000 0.000000 0.000000
		CHANNELS 3 Zrotation Yrotation Xrotation
		JOINT Spine
		{
			OFFSET -0.087000 1.940000 -0.288900
			CHANNELS 3 Zrotation Yrotation Xrotation
			JOINT Spine1
			{
				OFFSET 0.000000 1.950000 0.060000
				CHANNELS 3 Zrotation Yrotation Xrotation
				JOINT Neck
				{
					OFFSET 0.000000 0.000000 0.000000
					CHANNELS 3 Zrotation Yrotation Xrotation
					JOINT Neck1
					{
						OFFSET 0.000000 1.600000 0.340000
						CHANNELS 3 Zrotation Yrotation Xrotation
						JOINT Head
						{
							OFFSET 0.000000 1.667000 -0.240000
							CHANNELS 3 Zrotation Yrotation Xrotation
							End Site
							{
								OFFSET 0.000000 0.000000 0.000000
							}
						}
					}
				}
				JOINT LeftShoulder
				{
					OFFSET 0.000000 0.000000 0.000000
					CHANNELS 3 Zrotation Yrotation Xrotation
					JOINT LeftArm
					{
						OFFSET 2.700000 1.550000 -0.730000
						CHANNELS 3 Zrotation Yrotation Xrotation
						JOINT LeftForeArm
						{
							OFFSET 5.450000 0.000000 0.000000
							CHANNELS 3 Zrotation Yrotation Xrotation
							JOINT LeftHand
							{
								OFFSET 3.450000 0.000000 0.000000
								CHANNELS 3 Zrotation Yrotation Xrotation
								JOINT LeftHandIndex1
								{
									OFFSET 0.750000 0.000000 0.000000
									CHANNELS 3 Zrotation Yrotation Xrotation
									End Site
									{
										OFFSET 0.000000 0.000000 0.000000
									}
								}
							}
						}
					}
				}
				JOINT RightShoulder
				{
					OFFSET 0.000000 0.000000 0.000000
					CHANNELS 3 Zrotation Yrotation Xrotation
					JOINT RightArm
					{
						OFFSET -2.700000 1.550000 -0.730000
						CHANNELS 3 Zrotation Yrotation Xrotation
						JOINT RightForeArm
						{
							OFFSET -5.450000 0.000000 0.000000
							CHANNELS 3 Zrotation Yrotation Xrotation
							JOINT RightHand
							{
								OFFSET -3.450000 0.000000 0.000000
								CHANNELS 3 Zrotation Yrotation Xrotation
								JOINT RightHandIndex1
								{
									OFFSET -0.750000 0.000000 0.000000
									CHANNELS 3 Zrotation Yrotation Xrotation
									End Site
									{
										OFFSET 0.000000 0.000000 0.000000
									}
								}
							}
						}
					}
				}
			}
		}
	}
}
MOTION
Frames: 4
Frame Time: 0.016667
-2.568030 18.052990 0.538470 -41.760217 53.614829 -37.435609 -15.867396 12.020728 0.939747 24.235873 0.683235 -14.815113 1.105063 7.313733 22.944345 -0.312690 5.525368 2.581741 0.507790 0.317410 0.099580 18.249254 -6.729753 6.973322 -26.046670 15.703813 -65.076855 46.242586 -41.539425 59.253140 -3.129586 -14.790424 -0.182706 0.243150 0.402710 0.196150 -4.865141 -1.550905 -9.853845 17.187931 -6.800970 36.163896 -7.500880 -0.593258 17.825878 4.253379 0.679128 -10.529814 -2.106888 -5.984039 44.024320 18.553570 -14.127440 -17.532000 -3.950159 -32.163115 7.664250 -25.899227 -38.350172 2.475692 134.980376 -53.858142 -119.417433 -3.641984 2.929276 0.445920 -0.023000 0.015100 0.356410 -3.713411 31.636111 3.504433 0.165655 32.686788 -6.971354 -134.247393 61.066899 -123.561030 2.168278 -1.581974 -0.125370 0.375380 -0.046660 0.096440 
-2.636760 18.101800 0.604820 -45.473595 57.605891 -39.919597 -15.992742 11.974917 1.049349 23.398168 0.586050 -16.930624 0.928919 6.838742 20.854021 -0.398651 5.170809 2.699122 0.438250 0.198730 0.133900 18.122923 -6.559154 7.032546 -25.140496 16.674217 -66.611779 49.092357 -44.648214 60.158807 -3.314681 -15.249595 -0.264564 0.171100 0.367360 0.173660 -5.000610 -1.269182 -10.056376 17.531523 -6.296787 36.457840 -7.459683 -0.059719 15.209310 4.464914 2.175337 -11.308387 0.763847 -7.979388 46.713023 18.935790 -14.932220 -17.841440 -7.637240 -31.763067 8.996846 -32.772508 -34.361476 1.270822 150.585817 -62.913057 -151.474026 -3.486312 3.172906 0.528490 -0.055230 0.036400 0.293310 -0.549595 31.222580 3.407168 10.428712 32.458095 -7.998141 -159.079401 68.941315 -164.529931 1.945593 -1.797238 -0.174030 0.382430 -0.015770 0.042430 
-2.684020 18.139340 0.659060 -49.037058 60.463073 -43.504195 -16.068163 12.040795 1.201546 23.167267 0.694854 -18.223684 0.219325 6.964743 20.650351 -0.354947 5.064313 2.693290 0.474210 0.225880 0.256410 18.018020 -6.461173 6.972654 -22.747414 18.512714 -66.688115 49.473762 -47.081807 62.682406 -3.580111 -15.801547 -0.377275 0.131050 0.221560 0.176620 -4.992286 -1.086508 -10.191805 17.880554 -5.914539 38.371602 -7.668826 0.568546 12.255854 4.510716 3.868669 -12.399489 4.000725 -10.424922 49.486262 19.111950 -14.653070 -19.418850 -11.317135 -31.676538 9.810065 -36.274511 -29.436581 -1.762419 171.162394 -67.402174 176.693782 -3.324346 3.147405 0.607330 -0.144330 0.153080 0.253010 2.719532 30.876892 4.105291 18.249743 30.139683 -10.769358 163.917455 70.667491 143.808750 1.926444 -1.245399 -0.129070 0.320950 -0.083320 -0.002230 
-2.708210 18.135060 0.715930 -53.693396 62.760908 -47.857852 -16.082492 11.955901 1.444610 23.780533 0.766888 -20.125300 -1.488913 7.608100 21.168733 -0.308780 5.284135 2.592016 0.473230 0.191660 0.294960 18.005669 -6.278928 6.874342 -20.409637 20.263938 -67.532913 48.811595 -50.551937 66.754265 -3.876552 -16.699446 -0.547219 0.091280 0.180000 0.170600 -5.068519 -0.841369 -10.355009 19.222536 -6.421520 39.198171 -8.285776 0.681428 9.915465 4.047880 3.846681 -13.067837 3.807187 -11.026547 51.282820 20.582550 -15.389510 -19.255460 -13.750635 -30.577314 9.966172 -40.066544 -25.165283 -3.593152 -166.745923 -67.907575 143.918881 -3.323842 3.030328 0.655120 -0.192780 0.187540 0.243980 5.720466 30.130984 5.000222 24.258102 28.675786 -10.923613 138.338011 67.188285 102.826402 2.375489 -0.730936 -0.127020 0.298930 -0.105890 -0.017270 
